<?xml version="1.0" encoding="utf-8"?><!-- Uploaded to: SVG Repo, www.svgrepo.com, Generator: SVG Repo Mixer Tools -->
<svg width="800px" height="800px" viewBox="0 -2 32 32" xmlns="http://www.w3.org/2000/svg">
  <g id="Lager_102" data-name="Lager 102" transform="translate(-3)">
    <path id="Path_100" data-name="Path 100" d="M26,4c2.757,0,5,2.692,5,6,0,6.308-7.637,11.425-12,13.6C14.632,21.422,7,16.307,7,10c0-3.308,2.243-6,5-6a5.033,5.033,0,0,1,3.765,2.353l1.618,1.772a2,2,0,0,0,3.234,0l1.618-1.772A5.033,5.033,0,0,1,26,4m0-4a8.961,8.961,0,0,0-7,4,8.961,8.961,0,0,0-7-4C7.029,0,3,4.477,3,10,3,21.438,19,28,19,28s16-6.562,16-18c0-5.523-4.029-10-9-10Z" fill="#040405"/>
  </g>
</svg>