<?xml version="1.0" encoding="UTF-8"?>
<!-- Generator: Adobe Illustrator 27.0.1, SVG Export Plug-In . SVG Version: 6.00 Build 0)  -->
<svg version="1.1" id="Layer_1" xmlns="http://www.w3.org/2000/svg" xmlns:xlink="http://www.w3.org/1999/xlink" x="0px" y="0px" viewBox="0 0 537.6 72.5" style="enable-background:new 0 0 537.6 72.5;" xml:space="preserve">
<style type="text/css">
	.st0{fill:#7C47CE;}
	.st1{fill-rule:evenodd;clip-rule:evenodd;}
	.st2{fill-rule:evenodd;clip-rule:evenodd;fill:#7C47CE;}
</style>
<g>
	<g>
		<path d="M140.8,36.3c0,19-15.4,34.5-34.5,34.5c-19,0-34.5-15.4-34.5-34.5c0-19,15.4-34.5,34.5-34.5c3.1,0,6,0.4,8.8,1.1l-7.7,5.8    c-0.4,0-0.8,0-1.1,0C91.1,8.7,78.8,21,78.8,36.3c0,15.2,12.3,27.6,27.6,27.6c15.2,0,27.6-12.3,27.6-27.6c0-6.3-2.1-12.1-5.6-16.7    V9.7C136,16,140.8,25.6,140.8,36.3z"/>
		<polygon class="st0" points="124.9,0 106.4,13.9 124.9,23.1   "/>
	</g>
	<g>
		<polygon class="st1" points="219.1,54.2 174,1.7 165.2,1.7 225.9,72.5 225.9,1.7 219.1,1.7   "/>
		<polygon class="st1" points="168.5,15.9 168.5,69.1 175.3,69.1 175.3,23.8   "/>
	</g>
	<g>
		<polygon class="st1" points="57.3,1.7 45.9,1.7 0,35.4 45.9,69.1 57.3,69.1 11.4,35.4   "/>
		<polygon class="st1" points="10.1,19.6 10.1,1.7 3.4,1.7 3.4,24.5   "/>
		<polygon class="st1" points="3.4,46.2 3.4,69.1 10.1,69.1 10.1,51.2   "/>
	</g>
	<g>
		<rect x="351.6" y="32" class="st2" width="30.3" height="6.7"/>
		<path class="st2" d="M388.7,1.7h-37.1v6.7h37.1V1.7L388.7,1.7z M344.8,1.7v6.7v50.2v3.8h43.8v6.7h-50.6V1.7H344.8z"/>
	</g>
	<path class="st2" d="M280.7,1.7h-27v6.7h27c14.9,0,27,12.1,27,27l0,0c0,14.9-12.1,27-27,27h-20.2V15.1h-6.7v53.9h27   c18.6,0,33.7-15.1,33.7-33.7l0,0C314.4,16.7,299.3,1.7,280.7,1.7z"/>
	<path class="st2" d="M443.6,33.5l-18.2-2.8c-5.5-0.8-9.6-5.6-9.6-11.2c0-6.2,5.1-11.3,11.3-11.3h6.1l9-6.5   c-0.6-0.1-1.3-0.1-1.9-0.1h-13.2c-9.9,0-17.9,8-17.9,17.9l0,0c0,8.8,6.4,16.3,15.2,17.7l18.2,2.8c5.5,0.8,9.6,5.6,9.6,11.2v0   c0,6.2-5.1,11.3-11.3,11.3h-13.2c-4.9,0-9.7-3-11.6-7.3h-7c2.1,8,9.9,13.9,18.5,13.9h13.2c9.9,0,17.9-8,17.9-17.9l0,0   C458.8,42.4,452.3,34.8,443.6,33.5L443.6,33.5z M443.4,8.7l6.2-4.5c4.2,2.5,7.3,6.5,8.6,11.4h-7C449.8,12.2,446.9,9.6,443.4,8.7z"/>
	<g>
		<polygon class="st2" points="537.6,1.7 526.2,1.7 480.3,35.4 526.2,69.1 537.6,69.1 491.7,35.4   "/>
		<polygon class="st2" points="490.4,19.6 490.4,1.7 483.6,1.7 483.6,24.5   "/>
		<polygon class="st2" points="483.6,46.2 483.6,69.1 490.4,69.1 490.4,51.2   "/>
	</g>
</g>
</svg>